<?xml version="1.0" encoding="UTF-8" standalone="no"?>
<!-- Created with Inkscape (http://www.inkscape.org/) -->

<svg
   xmlns:dc="http://purl.org/dc/elements/1.1/"
   xmlns:cc="http://creativecommons.org/ns#"
   xmlns:rdf="http://www.w3.org/1999/02/22-rdf-syntax-ns#"
   xmlns:svg="http://www.w3.org/2000/svg"
   xmlns="http://www.w3.org/2000/svg"
   xmlns:sodipodi="http://sodipodi.sourceforge.net/DTD/sodipodi-0.dtd"
   xmlns:inkscape="http://www.inkscape.org/namespaces/inkscape"
   width="744.09448819"
   height="1052.3622047"
   id="svg2"
   version="1.1"
   inkscape:version="0.48.4 r9939"
   sodipodi:docname="canvas.svg">
  <defs
     id="defs4" />
  <sodipodi:namedview
     id="base"
     pagecolor="#ffffff"
     bordercolor="#666666"
     borderopacity="1.0"
     inkscape:pageopacity="0.0"
     inkscape:pageshadow="2"
     inkscape:zoom="0.98994949"
     inkscape:cx="692.28019"
     inkscape:cy="799.65712"
     inkscape:document-units="px"
     inkscape:current-layer="layer1"
     showgrid="false"
     inkscape:window-width="1305"
     inkscape:window-height="744"
     inkscape:window-x="61"
     inkscape:window-y="24"
     inkscape:window-maximized="1" />
  <metadata
     id="metadata7">
    <rdf:RDF>
      <cc:Work
         rdf:about="">
        <dc:format>image/svg+xml</dc:format>
        <dc:type
           rdf:resource="http://purl.org/dc/dcmitype/StillImage" />
        <dc:title />
      </cc:Work>
    </rdf:RDF>
  </metadata>
  <g
     inkscape:label="Layer 1"
     inkscape:groupmode="layer"
     id="layer1">
    <path
       style="fill:none;stroke:#000000;stroke-width:1px;stroke-linecap:butt;stroke-linejoin:miter;stroke-opacity:1"
       d="M 69.700526,25.54212 713.67277,34.633493 727.81491,450.31127 62.124382,450.81634 z"
       id="path2985"
       inkscape:connector-curvature="0" />
    <path
       style="fill:#ff0000;stroke:#000000;stroke-width:1px;stroke-linecap:butt;stroke-linejoin:miter;stroke-opacity:1"
       d="M 217.1828,57.361925 207.08127,67.968527 209.60665,87.161425 223.24371,79.585281 242.94169,80.595433 254.05337,81.605586 279.30718,81.605586 277.79195,72.009137 278.29703,65.443145 238.396,63.927916 229.30463,63.927916 z"
       id="e1"
       inkscape:connector-curvature="0"
       inkscape:label="#path2987" />
    <path
       style="fill:#ff0000;stroke:#000000;stroke-width:1px;stroke-linecap:butt;stroke-linejoin:miter;stroke-opacity:1"
       d="M 279.81226,81.605586 356.07877,94.737569 355.06862,79.080205 278.8021,66.453298 z"
       id="e2"
       inkscape:connector-curvature="0"
       inkscape:label="#path2989" />
    <path
       style="fill:#ff0000;stroke:#000000;stroke-width:1px;stroke-linecap:butt;stroke-linejoin:miter;stroke-opacity:1"
       d="M 356.58385,95.242645 374.26152,97.768027 373.25137,82.615739 354.56354,79.585281 z"
       id="e3"
       inkscape:connector-curvature="0"
       inkscape:label="#path2991" />
    <path
       style="fill:#ff0000;stroke:#000000;stroke-width:1px;stroke-linecap:butt;stroke-linejoin:miter;stroke-opacity:1"
       d="M 373.75644,83.625891 374.76659,98.273103 427.7996,108.8797 438.4062,106.35432 439.41636,99.283256 403.05087,88.171578 z"
       id="e4"
       inkscape:connector-curvature="0"
       inkscape:label="#path2993" />
    <path
       style="fill:#ff0000;stroke:#000000;stroke-width:1px;stroke-linecap:butt;stroke-linejoin:miter;stroke-opacity:1"
       d="M 241.93153,81.10051 240.92138,94.232493 241.42646,95.747722 253.54829,96.757874 254.55844,95.747722 254.55844,83.625891 254.05337,82.615739 z"
       id="e5"
       inkscape:connector-curvature="0"
       inkscape:label="#path2995" />
    <path
       style="fill:#ff0000;stroke:#000000;stroke-width:1px;stroke-linecap:butt;stroke-linejoin:miter;stroke-opacity:1"
       d="M 255.06352,83.120815 254.05337,135.14367 277.79195,119.48631 284.86302,114.43554 286.37825,100.29341 286.37825,91.202035 286.37825,89.686806 281.32748,88.171578 279.81226,87.161425 280.31733,82.615739 z"
       id="e6"
       inkscape:connector-curvature="0"
       inkscape:label="#path2997" />
    <path
       style="fill:#ff0000;stroke:#000000;stroke-width:1px;stroke-linecap:butt;stroke-linejoin:miter;stroke-opacity:1"
       d="M 281.32748,82.110662 280.82241,87.161425 286.37825,90.191883 286.88332,91.707111 394.46457,108.8797 394.46457,102.31371 z"
       id="e7"
       inkscape:connector-curvature="0"
       inkscape:label="#path2999" />
    <path
       style="fill:#ff0000;stroke:#000000;stroke-width:1px;stroke-linecap:butt;stroke-linejoin:miter;stroke-opacity:1"
       d="M 379.81736,106.8594 378.8072,121.00154 426.28437,109.38478 394.96965,102.81879 394.96965,108.8797 z"
       id="e20"
       inkscape:connector-curvature="0"
       inkscape:label="#path3001" />
    <path
       style="fill:#ff0000;stroke:#000000;stroke-width:1px;stroke-linecap:butt;stroke-linejoin:miter;stroke-opacity:1"
       d="M 286.88332,92.717264 286.37825,100.29341 298.50008,103.32387 299.51023,101.30356 322.23866,105.34417 325.26912,107.36448 333.35034,107.86955 334.36049,99.283256 z"
       id="e8"
       inkscape:connector-curvature="0"
       inkscape:label="#path3003" />
    <path
       style="fill:#ff0000;stroke:#000000;stroke-width:1px;stroke-linecap:butt;stroke-linejoin:miter;stroke-opacity:1"
       d="M 286.37825,100.29341 285.36809,113.93047 297.995,104.33402 297.995,102.31371 z"
       id="e9"
       inkscape:connector-curvature="0"
       inkscape:label="#path3005" />
    <path
       style="fill:#ff0000;stroke:#000000;stroke-width:1px;stroke-linecap:butt;stroke-linejoin:miter;stroke-opacity:1"
       d="M 299.00515,101.80864 302.03561,108.37463 310.11683,114.94062 320.21836,120.49646 325.7742,122.01169 324.25897,107.86955 321.73359,104.83909 z"
       id="e10"
       inkscape:connector-curvature="0"
       inkscape:label="#path3007" />
    <path
       style="fill:#ff0000;stroke:#000000;stroke-width:1px;stroke-linecap:butt;stroke-linejoin:miter;stroke-opacity:1"
       d="M 323.75389,106.8594 325.7742,118.98123 345.97725,121.50661 378.8072,111.40509 379.31228,107.36448 332.84526,99.788332 333.35034,107.36448 z"
       id="e11"
       inkscape:connector-curvature="0"
       inkscape:label="#path3009" />
    <path
       style="fill:#ff0000;stroke:#000000;stroke-width:1px;stroke-linecap:butt;stroke-linejoin:miter;stroke-opacity:1"
       d="M 299.00515,103.32387 283.34779,116.45585 294.45947,123.52692 307.08637,130.09291 321.73359,129.58783 331.83511,126.0523 323.75389,122.01169 315.16759,117.97108 305.57115,111.40509 z"
       id="e12"
       inkscape:connector-curvature="0"
       inkscape:label="#path3011" />
    <path
       style="fill:#ff0000;stroke:#000000;stroke-width:1px;stroke-linecap:butt;stroke-linejoin:miter;stroke-opacity:1"
       d="M 346.48232,121.00154 326.78435,119.48631 325.7742,122.01169 332.34019,126.0523 z"
       id="e14"
       inkscape:connector-curvature="0"
       inkscape:label="#path3013" />
    <path
       style="fill:#ff0000;stroke:#000000;stroke-width:1px;stroke-linecap:butt;stroke-linejoin:miter;stroke-opacity:1"
       d="M 284.35794,115.4457 277.79195,118.98123 284.86302,126.0523 291.42901,130.09291 299.00515,133.12337 309.61176,132.61829 311.63206,130.09291 301.02546,127.56753 z"
       id="e13"
       inkscape:connector-curvature="0"
       inkscape:label="#path3015" />
    <path
       style="fill:#ff0000;stroke:#000000;stroke-width:1px;stroke-linecap:butt;stroke-linejoin:miter;stroke-opacity:1"
       d="M 255.06352,135.14367 267.69042,146.76043 305.57115,133.62844 294.96454,131.10306 285.87317,127.56753 278.8021,119.48631 z"
       id="e15"
       inkscape:connector-curvature="0"
       inkscape:label="#path3017" />
    <path
       style="fill:#ff0000;stroke:#000000;stroke-width:1px;stroke-linecap:butt;stroke-linejoin:miter;stroke-opacity:1"
       d="M 268.1955,145.75027 274.25642,155.34672 319.71328,139.18428 344.46202,130.59798 378.30213,121.00154 378.8072,110.90001 z"
       id="e19"
       inkscape:connector-curvature="0"
       inkscape:label="#path3019" />
    <path
       style="fill:#ff0000;stroke:#000000;stroke-width:1px;stroke-linecap:butt;stroke-linejoin:miter;stroke-opacity:1"
       d="M 254.55844,135.14367 250.01276,136.6589 261.62951,151.30611 269.71073,157.36703 273.24626,154.84165 268.1955,146.25535 z"
       id="e16"
       inkscape:connector-curvature="0"
       inkscape:label="#path3021" />
    <path
       style="fill:#ff0000;stroke:#000000;stroke-width:1px;stroke-linecap:butt;stroke-linejoin:miter;stroke-opacity:1"
       d="M 253.04321,142.21474 242.94169,151.81119 254.05337,162.92287 268.1955,157.36703 z"
       id="e17"
       inkscape:connector-curvature="0"
       inkscape:label="#path3023" />
    <path
       style="fill:#ff0000;stroke:#000000;stroke-width:1px;stroke-linecap:butt;stroke-linejoin:miter;stroke-opacity:1"
       d="M 237.38585,119.99138 226.27417,147.2655 210.11173,178.07515 253.54829,162.92287 243.44676,151.81119 252.53814,141.70966 249.50768,135.14367 z"
       id="e18"
       inkscape:connector-curvature="0"
       inkscape:label="#path3025" />
    <path
       style="fill:#ff0000;stroke:#000000;stroke-width:1px;stroke-linecap:butt;stroke-linejoin:miter;stroke-opacity:1"
       d="M 183.34269,188.17668 186.37314,201.30866 190.91883,204.33912 219.70818,200.80359 231.83001,197.26805 300.01531,177.57008 296.47977,175.54977 292.94424,167.46855 353.55339,145.75027 373.25137,137.16398 374.26152,139.68936 373.25137,160.90256 374.26152,165.95332 381.83766,163.93302 381.33259,148.27565 384.86812,144.23504 402.54579,142.71982 404.56609,144.74012 411.63716,146.25535 440.93159,139.18428 440.93159,138.6792 454.06357,136.15382 457.5991,134.13352 443.45697,106.8594 437.90113,106.8594 363.14984,124.53707 262.13459,159.38733 211.12188,178.58023 z"
       id="e21"
       inkscape:connector-curvature="0"
       inkscape:label="#path3027" />
    <path
       style="fill:#ff0000;stroke:#000000;stroke-width:1px;stroke-linecap:butt;stroke-linejoin:miter;stroke-opacity:1"
       d="M 190.91883,205.34927 201.52543,213.93557 222.73864,217.97618 218.69803,201.81374 z"
       id="e37"
       inkscape:connector-curvature="0"
       inkscape:label="#path3029" />
    <path
       style="fill:#ff0000;stroke:#000000;stroke-width:1px;stroke-linecap:butt;stroke-linejoin:miter;stroke-opacity:1"
       d="M 218.19295,201.81374 222.23356,218.48126 227.28432,219.49141 232.84016,215.4508 230.31478,197.77313 z"
       id="e36"
       inkscape:connector-curvature="0"
       inkscape:label="#path3031" />
    <path
       style="fill:#ff0000;stroke:#000000;stroke-width:1px;stroke-linecap:butt;stroke-linejoin:miter;stroke-opacity:1"
       d="M 230.81986,198.27821 233.34524,215.4508 228.79955,219.49141 237.89092,219.99648 282.84271,208.37973 297.48992,201.30866 294.96454,192.72237 294.96454,185.14622 304.05592,184.64115 303.04576,176.55993 300.01531,176.05485 298.50008,177.57008 z"
       id="e35"
       inkscape:connector-curvature="0"
       inkscape:label="#path3052" />
    <path
       style="fill:#ff0000;stroke:#000000;stroke-width:1px;stroke-linecap:butt;stroke-linejoin:miter;stroke-opacity:1"
       d="M 354.56354,146.76043 293.44931,167.46855 297.48992,176.55993 304.05592,175.0447 309.61176,173.52947 315.16759,174.03454 317.1879,172.01424 362.13969,168.98378 368.70568,167.46855 z"
       id="e23"
       inkscape:connector-curvature="0"
       inkscape:label="#path3054" />
    <path
       style="fill:#ff0000;stroke:#000000;stroke-width:1px;stroke-linecap:butt;stroke-linejoin:miter;stroke-opacity:1"
       d="M 354.56354,146.76043 368.70568,166.96348 373.25137,164.94317 373.25137,137.16398 z"
       id="e22"
       inkscape:connector-curvature="0"
       inkscape:label="#path3056" />
    <path
       style="fill:#ff0000;stroke:#000000;stroke-width:1px;stroke-linecap:butt;stroke-linejoin:miter;stroke-opacity:1"
       d="M 314.66252,175.0447 314.15744,183.63099 304.05592,184.64115 304.56099,175.54977 311.12698,173.52947 z"
       id="e34"
       inkscape:connector-curvature="0"
       inkscape:label="#path3058" />
    <path
       style="fill:#ff0000;stroke:#000000;stroke-width:1px;stroke-linecap:butt;stroke-linejoin:miter;stroke-opacity:1"
       d="M 314.66252,174.03454 314.15744,184.13607 334.36049,184.13607 362.13969,181.10561 361.63461,169.48886 317.1879,172.01424 z"
       id="e33"
       inkscape:connector-curvature="0"
       inkscape:label="#path3060" />
    <path
       style="fill:#ff0000;stroke:#000000;stroke-width:1px;stroke-linecap:butt;stroke-linejoin:miter;stroke-opacity:1"
       d="M 382.34274,148.78073 381.33259,163.93302 386.88843,162.92287 403.05087,144.74012 402.04071,142.21474 384.36304,144.23504 z"
       id="e25"
       inkscape:connector-curvature="0"
       inkscape:label="#path3062" />
    <path
       style="fill:none;stroke:#000000;stroke-width:1px;stroke-linecap:butt;stroke-linejoin:miter;stroke-opacity:1"
       d="M 442.44682,139.18428 z"
       id="path3064"
       inkscape:connector-curvature="0" />
    <path
       style="fill:#ff0000;stroke:#000000;stroke-width:1px;stroke-linecap:butt;stroke-linejoin:miter;stroke-opacity:1"
       d="M 402.54579,143.72997 385.87827,163.42794 409.11178,156.86195 445.98235,149.28581 444.46712,144.74012 443.96204,140.19443 439.92143,138.17413 411.13209,146.25535 z"
       id="e26"
       inkscape:connector-curvature="0"
       inkscape:label="#path3066" />
    <path
       style="fill:#ff0000;stroke:#000000;stroke-width:1px;stroke-linecap:butt;stroke-linejoin:miter;stroke-opacity:1"
       d="M 444.46712,106.8594 457.5991,135.64875 474.7717,137.16398 461.13464,113.93047 456.58895,110.39493 447.49758,105.34417 z"
       id="e24"
       inkscape:connector-curvature="0"
       inkscape:label="#path3068" />
    <path
       style="fill:#ff0000;stroke:#000000;stroke-width:1px;stroke-linecap:butt;stroke-linejoin:miter;stroke-opacity:1"
       d="M 466.69048,120.49646 474.7717,138.17413 493.45952,137.66905 494.97475,146.76043 516.69303,142.21474 515.1778,109.38478 482.34784,116.96093 469.72093,117.97108 469.72093,118.98123 z"
       id="e28"
       inkscape:connector-curvature="0"
       inkscape:label="#path3070" />
    <path
       style="fill:#ff0000;stroke:#000000;stroke-width:1px;stroke-linecap:butt;stroke-linejoin:miter;stroke-opacity:1"
       d="M 516.18795,109.88986 516.69303,142.21474 520.22856,144.23504 536.89608,140.69951 535.38085,104.33402 z"
       id="e29"
       inkscape:connector-curvature="0"
       inkscape:label="#path3072" />
    <path
       style="fill:#ff0000;stroke:#000000;stroke-width:1px;stroke-linecap:butt;stroke-linejoin:miter;stroke-opacity:1"
       d="M 535.38085,104.33402 536.89608,140.19443 521.23871,144.74012 517.1981,142.71982 494.97475,145.75027 480.83261,150.80104 472.24632,154.33657 473.76154,167.97363 541.44176,160.39748 543.46207,174.03454 534.3707,176.05485 545.48237,203.32897 574.27172,206.8645 615.1829,168.98378 615.1829,165.95332 597.50523,148.27565 573.76665,147.77058 574.7768,118.98123 554.57375,100.79848 z"
       id="e30"
       inkscape:connector-curvature="0"
       inkscape:label="#path3074" />
    <path
       style="fill:#ff0000;stroke:#000000;stroke-width:1px;stroke-linecap:butt;stroke-linejoin:miter;stroke-opacity:1"
       d="M 574.27172,105.34417 573.26157,146.76043 602.05092,148.78073 622.75904,149.28581 623.7692,147.2655 623.26412,109.88986 622.25397,107.86955 z"
       id="e31"
       inkscape:connector-curvature="0"
       inkscape:label="#path3076" />
    <path
       style="fill:#ff0000;stroke:#000000;stroke-width:1px;stroke-linecap:butt;stroke-linejoin:miter;stroke-opacity:1"
       d="M 442.95189,138.17413 444.46712,148.27565 459.61941,144.23504 466.1854,149.79088 468.71078,159.89241 467.19555,161.40764 424.76915,171.50916 415.1727,175.54977 399.51533,187.6716 422.74884,180.60054 456.08387,173.52947 474.26662,170.49901 474.7717,167.97363 473.25647,161.40764 472.24632,154.33657 493.96459,145.75027 492.95444,138.17413 474.7717,138.17413 455.5788,135.14367 z"
       id="e27"
       inkscape:connector-curvature="0"
       inkscape:label="#path3078" />
    <path
       style="fill:#ff0000;stroke:#000000;stroke-width:1px;stroke-linecap:butt;stroke-linejoin:miter;stroke-opacity:1"
       d="M 362.13969,170.49901 363.14984,180.60054 369.21076,181.61069 394.96965,177.065 414.66762,175.0447 424.26407,171.00409 467.70063,160.90256 466.1854,149.79088 460.12448,144.74012 426.78945,153.32642 373.25137,166.4584 z"
       id="e32"
       inkscape:connector-curvature="0"
       inkscape:label="#path3080" />
    <path
       style="fill:#ff0000;stroke:#000000;stroke-width:1px;stroke-linecap:butt;stroke-linejoin:miter;stroke-opacity:1"
       d="M 294.96454,185.14622 294.96454,193.22744 335.87572,184.64115 z"
       id="path3082"
       inkscape:connector-curvature="0" />
    <path
       style="fill:#ff0000;stroke:#000000;stroke-width:1px;stroke-linecap:butt;stroke-linejoin:miter;stroke-opacity:1"
       d="M 361.63461,181.10561 334.86557,184.64115 295.46962,193.73252 297.48992,201.30866 368.70568,182.11576 z"
       id="e39"
       inkscape:connector-curvature="0"
       inkscape:label="#path3084" />
    <path
       style="fill:#ff0000;stroke:#000000;stroke-width:1px;stroke-linecap:butt;stroke-linejoin:miter;stroke-opacity:1"
       d="M 280.31733,209.89496 387.89858,185.14622 394.46457,177.065 363.65492,184.13607 297.48992,200.29851 z"
       id="e38"
       inkscape:connector-curvature="0"
       inkscape:label="#path3086" />
    <path
       style="fill:#ff0000;stroke:#000000;stroke-width:1px;stroke-linecap:butt;stroke-linejoin:miter;stroke-opacity:1"
       d="M 414.16254,175.54977 392.94934,177.065 388.90873,184.64115 281.32748,208.88481 240.41631,219.49141 263.64981,218.48126 264.65997,213.93557 277.79195,214.44065 316.68282,204.33912 379.31228,190.19698 383.85797,191.20714 389.91888,188.17668 398.0001,188.68176 z"
       id="e40"
       inkscape:connector-curvature="0"
       inkscape:label="#path3088" />
    <path
       style="fill:#ff0000;stroke:#000000;stroke-width:1px;stroke-linecap:butt;stroke-linejoin:miter;stroke-opacity:1"
       d="M 264.15489,218.48126 301.53053,215.4508 344.96709,203.83404 361.63461,200.80359 382.84781,191.71221 378.8072,191.20714 277.79195,213.93557 265.16504,212.92542 z"
       id="e41"
       inkscape:connector-curvature="0"
       inkscape:label="#path3090" />
    <path
       style="fill:#ff0000;stroke:#000000;stroke-width:1px;stroke-linecap:butt;stroke-linejoin:miter;stroke-opacity:1"
       d="M 284.86302,217.97618 289.4087,228.58278 296.98485,234.6437 259.10413,244.24015 258.59905,239.18938 256.57875,235.14877 248.49753,227.06755 244.96199,227.57263 239.91123,221.51171 z"
       id="e55"
       inkscape:connector-curvature="0"
       inkscape:label="#path3092" />
    <path
       style="fill:#ff0000;stroke:#000000;stroke-width:1px;stroke-linecap:butt;stroke-linejoin:miter;stroke-opacity:1"
       d="M 285.36809,217.97618 289.4087,230.09801 296.98485,234.13862 358.60415,221.00664 349.51278,216.46095 343.45187,211.41019 306.5813,213.93557 z"
       id="e54"
       inkscape:connector-curvature="0"
       inkscape:label="#path3094" />
    <path
       style="fill:#ff0000;stroke:#000000;stroke-width:1px;stroke-linecap:butt;stroke-linejoin:miter;stroke-opacity:1"
       d="M 344.46202,204.8442 307.08637,214.44065 345.47217,211.41019 z"
       id="e42"
       inkscape:connector-curvature="0"
       inkscape:label="#path3096" />
    <path
       style="fill:#ff0000;stroke:#000000;stroke-width:1px;stroke-linecap:butt;stroke-linejoin:miter;stroke-opacity:1"
       d="M 344.96709,204.8442 346.48232,213.93557 359.10923,220.50156 367.69553,218.98633 362.13969,215.95587 359.61431,201.81374 z"
       id="e43"
       inkscape:connector-curvature="0"
       inkscape:label="#path3098" />
    <path
       style="fill:#ff0000;stroke:#000000;stroke-width:1px;stroke-linecap:butt;stroke-linejoin:miter;stroke-opacity:1"
       d="M 360.11938,201.81374 362.13969,214.94572 368.70568,218.98633 382.84781,214.44065 380.32243,197.77313 384.36304,190.70206 z"
       id="e44"
       inkscape:connector-curvature="0"
       inkscape:label="#path3100" />
    <path
       style="fill:#ff0000;stroke:#000000;stroke-width:1px;stroke-linecap:butt;stroke-linejoin:miter;stroke-opacity:1"
       d="M 379.81736,198.78328 382.84781,214.44065 394.96965,215.95587 401.03056,212.92542 403.05087,198.27821 403.55594,190.70206 391.93919,187.6716 384.36304,192.21729 z"
       id="e45"
       inkscape:connector-curvature="0"
       inkscape:label="#path3102" />
    <path
       style="fill:#ff0000;stroke:#000000;stroke-width:1px;stroke-linecap:butt;stroke-linejoin:miter;stroke-opacity:1"
       d="M 399.01026,188.68176 407.09148,190.19698 417.69808,196.2579 470.22601,185.6513 476.792,182.11576 473.76154,170.49901 412.14224,183.63099 z"
       id="e46"
       inkscape:connector-curvature="0"
       inkscape:label="#path3104" />
    <path
       style="fill:#ff0000;stroke:#000000;stroke-width:1px;stroke-linecap:butt;stroke-linejoin:miter;stroke-opacity:1"
       d="M 474.26662,171.00409 477.29708,184.13607 484.36815,185.14622 515.68287,179.59038 514.67272,177.065 533.36054,175.0447 542.95699,173.52947 540.93669,160.39748 474.26662,167.46855 z"
       id="e47"
       inkscape:connector-curvature="0"
       inkscape:label="#path3106" />
    <path
       style="fill:#ff0000;stroke:#000000;stroke-width:1px;stroke-linecap:butt;stroke-linejoin:miter;stroke-opacity:1"
       d="M 403.55594,190.70206 404.06102,199.79343 414.16254,202.82389 472.75139,189.69191 479.82246,184.64115 475.78185,181.61069 469.72093,185.6513 418.20315,197.26805 z"
       id="e48"
       inkscape:connector-curvature="0"
       inkscape:label="#path3108" />
    <path
       style="fill:#ff0000;stroke:#000000;stroke-width:1px;stroke-linecap:butt;stroke-linejoin:miter;stroke-opacity:1"
       d="M 475.27677,187.6716 485.3783,189.18683 519.21841,187.6716 515.1778,180.09546 482.34784,186.15637 477.80215,184.64115 z"
       id="e49"
       inkscape:connector-curvature="0"
       inkscape:label="#path3110" />
    <path
       style="fill:#ff0000;stroke:#000000;stroke-width:1px;stroke-linecap:butt;stroke-linejoin:miter;stroke-opacity:1"
       d="M 504.5712,189.18683 505.07627,207.36958 531.34024,205.34927 545.48237,203.32897 533.86562,176.55993 515.1778,177.57008 519.72348,188.17668 z"
       id="e50"
       inkscape:connector-curvature="0"
       inkscape:label="#path3112" />
    <path
       style="fill:#ff0000;stroke:#000000;stroke-width:1px;stroke-linecap:butt;stroke-linejoin:miter;stroke-opacity:1"
       d="M 487.90368,189.69191 487.3986,207.36958 501.03566,207.36958 504.5712,207.36958 504.5712,188.68176 z"
       id="e51"
       inkscape:connector-curvature="0"
       inkscape:label="#path3114" />
    <path
       style="fill:#ff0000;stroke:#000000;stroke-width:1px;stroke-linecap:butt;stroke-linejoin:miter;stroke-opacity:1"
       d="M 486.89353,190.19698 482.34784,189.18683 480.83261,195.75282 486.38845,222.01679 487.3986,222.01679 487.90368,207.87465 z"
       id="e52"
       inkscape:connector-curvature="0"
       inkscape:label="#path3116" />
    <path
       style="fill:#ff0000;stroke:#000000;stroke-width:1px;stroke-linecap:butt;stroke-linejoin:miter;stroke-opacity:1"
       d="M 403.55594,199.79343 402.04071,213.43049 400.02041,213.93557 406.5864,240.70461 409.61686,240.70461 441.43666,233.63354 449.51788,229.59293 446.48743,215.4508 469.21586,211.91526 470.73109,211.91526 475.78185,225.55232 486.38845,221.51171 480.83261,196.76298 481.84276,189.18683 476.792,187.6716 472.24632,188.68176 413.15239,203.32897 z"
       id="e53"
       inkscape:connector-curvature="0"
       inkscape:label="#path3118" />
    <path
       style="fill:#ff0000;stroke:#000000;stroke-width:1px;stroke-linecap:butt;stroke-linejoin:miter;stroke-opacity:1"
       d="M 246.9823,243.73507 216.67772,239.69446 189.4036,227.57263 169.70563,222.01679 150.51273,222.01679 131.82491,231.61324 119.70308,243.22999 119.70308,245.2503 131.82491,247.77568 137.88582,243.73507 139.90613,243.73507 140.91628,239.18938 170.71578,239.18938 171.22086,243.73507 172.73609,245.75537 z"
       id="e56"
       inkscape:connector-curvature="0"
       inkscape:label="#path3120" />
    <path
       style="fill:#ff0000;stroke:#000000;stroke-width:1px;stroke-linecap:butt;stroke-linejoin:miter;stroke-opacity:1"
       d="M 252.53814,245.2503 237.89092,251.81629 191.42391,263.93812 187.3833,265.45335 189.4036,267.47365 176.27162,267.47365 176.7767,261.91782 148.49242,264.94827 132.83506,263.43304 130.30968,259.89751 128.79445,251.31121 137.88582,244.74522 140.4112,244.74522 141.42136,241.71476 140.4112,238.68431 169.70563,238.68431 172.73609,245.2503 z"
       id="e58"
       inkscape:connector-curvature="0"
       inkscape:label="#path3122" />
    <path
       style="fill:#ff0000;stroke:#000000;stroke-width:1px;stroke-linecap:butt;stroke-linejoin:miter;stroke-opacity:1"
       d="M 119.198,245.2503 116.16754,251.31121 119.70308,276.56503 124.24876,269.49396 133.34014,262.42289 128.79445,251.81629 130.81475,247.77568 z"
       id="e57"
       inkscape:connector-curvature="0"
       inkscape:label="#path3124" />
    <path
       style="fill:#ff0000;stroke:#000000;stroke-width:1px;stroke-linecap:butt;stroke-linejoin:miter;stroke-opacity:1"
       d="M 119.70308,275.55487 136.37059,270.50411 147.48227,267.47365 147.48227,264.94827 132.32998,262.92797 125.25892,268.98888 z"
       id="e59"
       inkscape:connector-curvature="0"
       inkscape:label="#path3126" />
    <path
       style="fill:#ff0000;stroke:#000000;stroke-width:1px;stroke-linecap:butt;stroke-linejoin:miter;stroke-opacity:1"
       d="M 147.48227,265.45335 147.98735,268.48381 151.52288,279.59549 152.02796,287.17163 154.04826,288.18178 157.07872,284.14117 172.23101,280.10056 183.84776,274.03965 188.39345,273.02949 189.90868,265.95843 176.27162,267.47365 176.7767,261.41274 z"
       id="e60"
       inkscape:connector-curvature="0"
       inkscape:label="#path3128" />
    <path
       style="fill:#ff0000;stroke:#000000;stroke-width:1px;stroke-linecap:butt;stroke-linejoin:miter;stroke-opacity:1"
       d="M 119.198,276.56503 118.18785,283.6361 121.72338,293.23254 126.77414,297.27315 127.27922,298.78838 155.56349,295.75793 154.55334,287.67671 151.52288,285.6564 149.50258,275.0498 147.98735,267.97873 z"
       id="e61"
       inkscape:connector-curvature="0"
       inkscape:label="#path3130" />
    <path
       style="fill:#ff0000;stroke:#000000;stroke-width:1px;stroke-linecap:butt;stroke-linejoin:miter;stroke-opacity:1"
       d="M 122.22846,294.2427 116.67262,295.75793 117.1777,300.80869 120.20815,305.35437 129.8046,330.60819 134.35029,339.69956 133.34014,321.51682 128.28937,303.83915 127.27922,297.77823 z"
       id="e62"
       inkscape:connector-curvature="0"
       inkscape:label="#path3132" />
    <path
       style="fill:#ff0000;stroke:#000000;stroke-width:1px;stroke-linecap:butt;stroke-linejoin:miter;stroke-opacity:1"
       d="M 574.27172,206.8645 590.93924,208.37973 617.70828,206.35943 621.24382,205.85435 620.23366,194.23759 590.93924,194.74267 584.37325,195.75282 z"
       id="e71"
       inkscape:connector-curvature="0"
       inkscape:label="#path3134" />
    <path
       style="fill:#ff0000;stroke:#000000;stroke-width:1px;stroke-linecap:butt;stroke-linejoin:miter;stroke-opacity:1"
       d="M 189.4036,273.02949 205.56604,268.98888 269.20565,250.30106 340.42141,233.63354 340.92648,230.09801 371.23106,223.02694 371.73614,225.04725 400.02041,216.46095 400.02041,212.92542 395.9798,215.95587 382.84781,213.93557 361.12954,220.50156 297.48992,235.14877 253.54829,246.26045 251.02291,245.75537 240.41631,250.80614 190.41375,263.93812 z"
       id="e65"
       inkscape:connector-curvature="0"
       inkscape:label="#path3136" />
    <path
       style="fill:#ff0000;stroke:#000000;stroke-width:1px;stroke-linecap:butt;stroke-linejoin:miter;stroke-opacity:1"
       d="M 154.04826,288.18178 155.05842,295.25285 168.69548,295.75793 189.4036,292.72747 190.91883,273.02949 182.33253,274.54472 172.73609,280.10056 155.56349,285.15132 z"
       id="e64"
       inkscape:connector-curvature="0"
       inkscape:label="#path3138" />
    <path
       style="fill:#ff0000;stroke:#000000;stroke-width:1px;stroke-linecap:butt;stroke-linejoin:miter;stroke-opacity:1"
       d="M 189.4036,292.22239 201.02036,291.71732 204.55589,291.71732 204.55589,268.98888 190.91883,272.52442 z"
       id="e66"
       inkscape:connector-curvature="0"
       inkscape:label="#path3140" />
    <path
       style="fill:#ff0000;stroke:#000000;stroke-width:1px;stroke-linecap:butt;stroke-linejoin:miter;stroke-opacity:1"
       d="M 204.05081,291.71732 235.36554,286.66655 245.46707,284.14117 257.5889,285.15132 260.11428,280.10056 261.62951,279.09041 261.62951,253.33152 204.05081,268.98888 z"
       id="e67"
       inkscape:connector-curvature="0"
       inkscape:label="#path3142" />
    <path
       style="fill:#ff0000;stroke:#000000;stroke-width:1px;stroke-linecap:butt;stroke-linejoin:miter;stroke-opacity:1"
       d="M 261.62951,252.82644 261.62951,259.39243 300.01531,259.39243 297.48992,252.82644 297.48992,251.81629 343.95694,240.70461 340.92648,233.63354 z"
       id="e68"
       inkscape:connector-curvature="0"
       inkscape:label="#path3144" />
    <path
       style="fill:#ff0000;stroke:#000000;stroke-width:1px;stroke-linecap:butt;stroke-linejoin:miter;stroke-opacity:1"
       d="M 344.46202,240.70461 375.27167,233.12847 371.73614,224.03709 340.42141,230.09801 z"
       id="e69"
       inkscape:connector-curvature="0"
       inkscape:label="#path3146" />
    <path
       style="fill:#ff0000;stroke:#000000;stroke-width:1px;stroke-linecap:butt;stroke-linejoin:miter;stroke-opacity:1"
       d="M 261.12443,259.39243 261.62951,278.58533 283.34779,279.59549 316.68282,282.62594 333.35034,283.6361 332.34019,288.68686 336.3808,288.18178 336.88587,262.42289 300.01531,259.39243 z"
       id="e85"
       inkscape:connector-curvature="0"
       inkscape:label="#path3148" />
    <path
       style="fill:#ff0000;stroke:#000000;stroke-width:1px;stroke-linecap:butt;stroke-linejoin:miter;stroke-opacity:1"
       d="M 372.74629,225.55232 375.77675,238.17923 403.55594,228.58278 400.02041,216.96603 z"
       id="e70"
       inkscape:connector-curvature="0"
       inkscape:label="#path3150" />
    <path
       style="fill:#ff0000;stroke:#000000;stroke-width:1px;stroke-linecap:butt;stroke-linejoin:miter;stroke-opacity:1"
       d="M 375.27167,233.63354 296.98485,251.81629 299.51023,258.38228 337.89603,263.93812 339.41126,260.40259 341.43156,261.41274 344.96709,258.88736 343.45187,248.78583 357.08892,242.72492 365.67522,247.2706 365.17015,256.86705 379.31228,255.8569 378.30213,246.76553 378.30213,238.68431 376.7869,238.68431 z"
       id="e79"
       inkscape:connector-curvature="0"
       inkscape:label="#path3152" />
    <path
       style="fill:#ff0000;stroke:#000000;stroke-width:1px;stroke-linecap:butt;stroke-linejoin:miter;stroke-opacity:1"
       d="M 378.8072,238.17923 380.32243,255.8569 401.03056,254.84675 403.05087,253.33152 402.54579,242.72492 402.54579,241.20969 406.08132,240.19954 403.05087,229.59293 z"
       id="e80"
       inkscape:connector-curvature="0"
       inkscape:label="#path3154" />
    <path
       style="fill:#ff0000;stroke:#000000;stroke-width:1px;stroke-linecap:butt;stroke-linejoin:miter;stroke-opacity:1"
       d="M 402.54579,241.71476 404.06102,255.35182 417.69808,254.84675 433.86052,276.56503 443.45697,272.01934 442.95189,269.99904 443.45697,268.98888 446.9925,265.45335 446.9925,256.86705 444.46712,250.30106 455.07372,244.24015 450.02296,230.60309 433.35544,235.65385 412.14224,240.70461 406.08132,239.18938 z"
       id="e81"
       inkscape:connector-curvature="0"
       inkscape:label="#path3156" />
    <path
       style="fill:#ff0000;stroke:#000000;stroke-width:1px;stroke-linecap:butt;stroke-linejoin:miter;stroke-opacity:1"
       d="M 446.48743,215.4508 453.55849,239.69446 458.60926,254.34167 473.25647,251.81629 482.85292,251.31121 480.32754,238.68431 471.23616,212.42034 z"
       id="e72"
       inkscape:connector-curvature="0"
       inkscape:label="#path3158" />
    <path
       style="fill:#ff0000;stroke:#000000;stroke-width:1px;stroke-linecap:butt;stroke-linejoin:miter;stroke-opacity:1"
       d="M 476.792,225.55232 483.86307,251.31121 493.96459,254.34167 494.97475,249.79598 513.66257,226.0574 530.83516,206.8645 488.40876,208.37973 487.3986,221.00664 z"
       id="e73"
       inkscape:connector-curvature="0"
       inkscape:label="#path3160" />
    <path
       style="fill:#ff0000;stroke:#000000;stroke-width:1px;stroke-linecap:butt;stroke-linejoin:miter;stroke-opacity:1"
       d="M 530.33009,206.35943 494.46967,250.80614 500.53059,250.30106 499.52043,247.77568 509.62196,239.69446 526.28948,220.50156 540.93669,203.83404 z"
       id="e74"
       inkscape:connector-curvature="0"
       inkscape:label="#path3162" />
    <path
       style="fill:#ff0000;stroke:#000000;stroke-width:1px;stroke-linecap:butt;stroke-linejoin:miter;stroke-opacity:1"
       d="M 515.1778,234.13862 508.10673,242.21984 547.50268,241.20969 563.16004,248.78583 576.7971,254.84675 582.85802,242.21984 586.39355,230.60309 573.76665,230.60309 571.24126,232.11832 560.63466,235.14877 535.38085,234.13862 z"
       id="e75"
       inkscape:connector-curvature="0"
       inkscape:label="#path3164" />
    <path
       style="fill:#ff0000;stroke:#000000;stroke-width:1px;stroke-linecap:butt;stroke-linejoin:miter;stroke-opacity:1"
       d="M 574.27172,229.59293 572.25142,219.99648 605.58645,215.95587 638.92149,208.88481 659.62961,206.35943 671.75144,209.38988 681.34789,215.95587 686.90373,223.53202 687.91388,230.60309 680.33774,239.18938 668.72099,245.75537 626.79965,257.37213 596.49508,262.42289 590.93924,249.29091 582.35294,240.70461 586.39355,229.59293 z"
       id="e76"
       inkscape:connector-curvature="0"
       inkscape:label="#path3166" />
    <path
       style="fill:#ff0000;stroke:#000000;stroke-width:1px;stroke-linecap:butt;stroke-linejoin:miter;stroke-opacity:1"
       d="M 499.52043,250.80614 528.81486,253.8366 538.41131,256.86705 556.59405,265.45335 564.1702,266.96858 578.31233,266.96858 594.97985,263.43304 576.7971,254.34167 548.00776,241.71476 507.09658,242.72492 502.04582,244.74522 z"
       id="e78"
       inkscape:connector-curvature="0"
       inkscape:label="#path3168" />
    <path
       style="fill:#ff0000;stroke:#000000;stroke-width:1px;stroke-linecap:butt;stroke-linejoin:miter;stroke-opacity:1"
       d="M 584.37325,240.70461 576.7971,254.84675 593.46462,262.42289 597.00015,261.91782 591.44432,249.79598 z"
       id="e77"
       inkscape:connector-curvature="0"
       inkscape:label="#path3170" />
    <path
       style="fill:#ff0000;stroke:#000000;stroke-width:1px;stroke-linecap:butt;stroke-linejoin:miter;stroke-opacity:1"
       d="M 455.07372,244.24015 444.46712,248.78583 446.9925,259.39243 453.05342,255.35182 458.60926,252.32137 z"
       id="e82"
       inkscape:connector-curvature="0"
       inkscape:label="#path3172" />
    <path
       style="fill:#ff0000;stroke:#000000;stroke-width:1px;stroke-linecap:butt;stroke-linejoin:miter;stroke-opacity:1"
       d="M 448.50773,273.02949 443.45697,268.48381 446.9925,265.45335 446.9925,259.89751 458.10418,252.32137 459.61941,254.84675 472.24632,251.81629 483.86307,251.81629 491.94429,253.33152 487.3986,263.43304 470.73109,262.92797 461.13464,265.45335 453.05342,271.00919 z"
       id="e93"
       inkscape:connector-curvature="0"
       inkscape:label="#path3174" />
    <path
       style="fill:#ff0000;stroke:#000000;stroke-width:1px;stroke-linecap:butt;stroke-linejoin:miter;stroke-opacity:1"
       d="M 491.94429,254.34167 488.40876,262.92797 489.41891,265.95843 493.45952,266.4635 498.51028,269.99904 500.02551,273.02949 500.02551,274.54472 517.1981,275.55487 514.67272,268.48381 507.60165,260.40259 499.52043,257.87721 z"
       id="e94"
       inkscape:connector-curvature="0"
       inkscape:label="#path3176" />
    <path
       style="fill:#ff0000;stroke:#000000;stroke-width:1px;stroke-linecap:butt;stroke-linejoin:miter;stroke-opacity:1"
       d="M 501.03566,275.0498 500.02551,283.13102 518.71333,283.13102 517.1981,276.05995 z"
       id="e97"
       inkscape:connector-curvature="0"
       inkscape:label="#path3178" />
    <path
       style="fill:#ff0000;stroke:#000000;stroke-width:1px;stroke-linecap:butt;stroke-linejoin:miter;stroke-opacity:1"
       d="M 500.02551,284.14117 494.97475,285.6564 489.92398,283.6361 488.40876,278.58533 467.19555,278.58533 453.05342,281.11071 444.9722,285.15132 442.95189,286.66655 441.43666,285.6564 440.42651,281.11071 443.96204,275.55487 447.49758,274.54472 449.51788,272.52442 461.63971,264.94827 472.75139,262.92797 487.3986,264.4432 493.96459,266.96858 499.01536,271.51426 500.53059,276.05995 z"
       id="e96"
       inkscape:connector-curvature="0"
       inkscape:label="#path3180" />
    <path
       style="fill:#ff0000;stroke:#000000;stroke-width:1px;stroke-linecap:butt;stroke-linejoin:miter;stroke-opacity:1"
       d="M 498.00521,285.15132 496.48998,288.18178 491.43921,300.80869 484.36815,307.87976 503.56104,307.37468 511.13719,296.76808 517.70318,288.68686 524.77425,283.13102 519.21841,283.13102 500.53059,283.13102 z"
       id="e99"
       inkscape:connector-curvature="0"
       inkscape:label="#path3182" />
    <path
       style="fill:#ff0000;stroke:#000000;stroke-width:1px;stroke-linecap:butt;stroke-linejoin:miter;stroke-opacity:1"
       d="M 503.56104,307.37468 502.04582,311.41529 503.05597,324.0422 503.56104,326.56758 518.71333,328.08281 534.3707,331.61834 551.54329,336.16403 573.26157,337.17418 590.93924,339.69956 610.63721,339.19449 640.94179,337.67926 655.08393,335.65895 654.07377,326.0625 649.52809,316.97113 640.94179,304.34422 634.3758,290.70716 626.29458,287.67671 600.03061,283.6361 577.80726,281.61579 544.9773,280.60564 525.27932,282.62594 516.69303,290.20209 z"
       id="e100"
       inkscape:connector-curvature="0"
       inkscape:label="#path3184" />
    <path
       style="fill:#ff0000;stroke:#000000;stroke-width:1px;stroke-linecap:butt;stroke-linejoin:miter;stroke-opacity:1"
       d="M 519.21841,329.09296 527.80471,341.21479 549.52298,350.30616 557.09913,347.78078 560.63466,344.75032 588.41386,340.20464 564.67527,335.65895 550.02806,335.65895 522.75394,328.58788 520.22856,331.11326 z"
       id="e101"
       inkscape:connector-curvature="0"
       inkscape:label="#path3186" />
    <path
       style="fill:#ff0000;stroke:#000000;stroke-width:1px;stroke-linecap:butt;stroke-linejoin:miter;stroke-opacity:1"
       d="M 587.40371,339.69956 604.5763,347.27571 610.13214,352.83154 643.97225,365.45845 672.7616,378.08536 673.26667,371.01429 674.27682,344.24525 648.51793,336.6691 604.07122,339.19449 z"
       id="e102"
       inkscape:connector-curvature="0"
       inkscape:label="#path3188" />
    <path
       style="fill:#ff0000;stroke:#000000;stroke-width:1px;stroke-linecap:butt;stroke-linejoin:miter;stroke-opacity:1"
       d="M 443.45697,299.29346 444.9722,291.71732 442.95189,285.6564 456.08387,280.10056 480.83261,278.08026 488.40876,279.09041 491.94429,284.64625 498.00521,285.15132 491.43921,301.31376 483.35799,306.8696 477.80215,306.8696 476.792,305.35437 z"
       id="e98"
       inkscape:connector-curvature="0"
       inkscape:label="#path3190" />
    <path
       style="fill:#ff0000;stroke:#000000;stroke-width:1px;stroke-linecap:butt;stroke-linejoin:miter;stroke-opacity:1"
       d="M 433.35544,276.56503 435.37575,280.10056 434.36559,281.11071 433.86052,298.28331 442.95189,299.29346 444.46712,292.72747 442.44682,286.16148 439.92143,281.61579 443.96204,276.56503 448.00265,273.53457 443.45697,269.99904 443.45697,272.52442 z"
       id="e95"
       inkscape:connector-curvature="0"
       inkscape:label="#path3192" />
    <path
       style="fill:#ff0000;stroke:#000000;stroke-width:1px;stroke-linecap:butt;stroke-linejoin:miter;stroke-opacity:1"
       d="M 434.36559,297.77823 420.22346,296.263 402.54579,292.72747 401.03056,293.23254 396.98995,291.71732 385.3732,292.22239 384.86812,287.67671 386.38335,279.59549 409.61686,281.61579 413.65747,279.59549 415.1727,276.05995 434.36559,278.58533 z"
       id="e92"
       inkscape:connector-curvature="0"
       inkscape:label="#path3194" />
    <path
       style="fill:#ff0000;stroke:#000000;stroke-width:1px;stroke-linecap:butt;stroke-linejoin:miter;stroke-opacity:1"
       d="M 434.36559,278.08026 418.70823,255.35182 382.34274,255.35182 364.66507,256.36198 363.14984,271.51426 363.14984,278.08026 367.69553,271.00919 380.32243,269.99904 382.84781,269.99904 381.83766,275.0498 383.35289,277.0701 386.38335,275.55487 398.0001,274.03965 400.52548,268.98888 405.57625,267.47365 413.65747,267.97873 414.16254,275.55487 z"
       id="e87"
       inkscape:connector-curvature="0"
       inkscape:label="#path3196" />
    <path
       style="fill:#ff0000;stroke:#000000;stroke-width:1px;stroke-linecap:butt;stroke-linejoin:miter;stroke-opacity:1"
       d="M 342.94679,248.78583 345.47217,260.90766 346.48232,267.97873 349.51278,269.99904 350.01786,272.52442 354.05847,275.55487 362.64476,278.58533 363.65492,260.90766 365.67522,247.2706 357.08892,243.22999 z"
       id="e84"
       inkscape:connector-curvature="0"
       inkscape:label="#path3198" />
    <path
       style="fill:#ff0000;stroke:#000000;stroke-width:1px;stroke-linecap:butt;stroke-linejoin:miter;stroke-opacity:1"
       d="M 336.88587,288.68686 347.99755,289.69701 351.02801,273.53457 347.99755,268.98888 345.47217,266.4635 343.95694,258.88736 340.92648,261.41274 339.41126,260.40259 336.88587,263.43304 z"
       id="e86"
       inkscape:connector-curvature="0"
       inkscape:label="#path3200" />
    <path
       style="fill:#ff0000;stroke:#000000;stroke-width:1px;stroke-linecap:butt;stroke-linejoin:miter;stroke-opacity:1"
       d="M 351.53309,274.54472 347.99755,289.19193 361.12954,289.69701 366.68537,286.66655 364.66507,279.09041 z"
       id="e88"
       inkscape:connector-curvature="0"
       inkscape:label="#path3202" />
    <path
       style="fill:#ff0000;stroke:#000000;stroke-width:1px;stroke-linecap:butt;stroke-linejoin:miter;stroke-opacity:1"
       d="M 362.64476,277.57518 369.71583,269.99904 382.84781,269.99904 381.33259,275.0498 z"
       id="e90"
       inkscape:connector-curvature="0"
       inkscape:label="#path3204" />
    <path
       style="fill:#ff0000;stroke:#000000;stroke-width:1px;stroke-linecap:butt;stroke-linejoin:miter;stroke-opacity:1"
       d="M 261.12443,278.58533 257.08382,287.17163 256.57875,290.70716 258.59905,292.72747 313.65237,296.263 315.67267,283.13102 z"
       id="e107"
       inkscape:connector-curvature="0"
       inkscape:label="#path3206" />
    <path
       style="fill:#ff0000;stroke:#000000;stroke-width:1px;stroke-linecap:butt;stroke-linejoin:miter;stroke-opacity:1"
       d="M 315.16759,282.62594 313.65237,296.76808 312.13714,303.83915 314.15744,313.4356 330.82496,311.92037 331.33004,298.28331 332.84526,287.67671 332.84526,283.13102 z"
       id="e108"
       inkscape:connector-curvature="0"
       inkscape:label="#path3208" />
    <path
       style="fill:#ff0000;stroke:#000000;stroke-width:1px;stroke-linecap:butt;stroke-linejoin:miter;stroke-opacity:1"
       d="M 313.14729,296.263 311.63206,303.33407 292.94424,302.32392 259.10413,304.8493 247.99245,307.87976 245.97214,307.87976 243.44676,304.34422 231.32493,307.87976 225.76909,300.80869 226.27417,297.27315 233.85031,289.69701 234.86047,285.15132 244.96199,284.64625 257.5889,284.64625 256.07367,290.20209 259.10413,292.22239 z"
       id="e106"
       inkscape:connector-curvature="0"
       inkscape:label="#path3210" />
    <path
       style="fill:#ff0000;stroke:#000000;stroke-width:1px;stroke-linecap:butt;stroke-linejoin:miter;stroke-opacity:1"
       d="M 127.7843,298.78838 133.34014,320.50666 164.14979,318.99143 183.34269,306.8696 202.03051,302.32392 201.02036,292.72747 190.41375,292.22239 172.23101,295.25285 155.56349,294.74777 z"
       id="e63"
       inkscape:connector-curvature="0"
       inkscape:label="#path3212" />
    <path
       style="fill:#ff0000;stroke:#000000;stroke-width:1px;stroke-linecap:butt;stroke-linejoin:miter;stroke-opacity:1"
       d="M 165.66502,318.99143 204.05081,315.96098 198.49498,303.83915 183.84776,304.8493 z"
       id="e103"
       inkscape:connector-curvature="0"
       inkscape:label="#path3214" />
    <path
       style="fill:#ff0000;stroke:#000000;stroke-width:1px;stroke-linecap:butt;stroke-linejoin:miter;stroke-opacity:1"
       d="M 199.00005,302.82899 204.55589,316.97113 224.25387,316.97113 237.38585,318.99143 231.32493,307.37468 225.26402,299.29346 211.12188,302.32392 z"
       id="e105"
       inkscape:connector-curvature="0"
       inkscape:label="#path3216" />
    <path
       style="fill:#ff0000;stroke:#000000;stroke-width:1px;stroke-linecap:butt;stroke-linejoin:miter;stroke-opacity:1"
       d="M 232.33509,307.37468 236.3757,321.01174 260.11428,318.99143 310.62191,317.98128 314.15744,315.4559 312.13714,303.83915 287.89348,301.31376 252.03306,305.85945 244.96199,307.37468 242.94169,303.33407 z"
       id="e109"
       inkscape:connector-curvature="0"
       inkscape:label="#path3218" />
    <path
       style="fill:none;stroke:#000000;stroke-width:1px;stroke-linecap:butt;stroke-linejoin:miter;stroke-opacity:1"
       d="M 313.65237,315.96098 324.76404,319.49651 330.31988,312.42544 315.16759,313.4356 z"
       id="path3220"
       inkscape:connector-curvature="0" />
    <path
       style="fill:#ff0000;stroke:#000000;stroke-width:1px;stroke-linecap:butt;stroke-linejoin:miter;stroke-opacity:1"
       d="M 331.83511,313.94067 342.44171,312.42544 343.45187,317.98128 357.594,317.98128 360.62446,315.96098 391.93919,318.48636 398.0001,315.4559 396.48487,311.41529 401.53564,292.72747 389.41381,293.23254 356.58385,290.20209 332.34019,289.19193 z"
       id="e110"
       inkscape:connector-curvature="0"
       inkscape:label="#path3222" />
    <path
       style="fill:#ff0000;stroke:#000000;stroke-width:1px;stroke-linecap:butt;stroke-linejoin:miter;stroke-opacity:1"
       d="M 359.61431,290.70716 385.3732,292.72747 384.36304,288.18178 385.3732,279.59549 382.84781,275.55487 378.30213,275.0498 363.14984,277.0701 366.68537,286.16148 z"
       id="e89"
       inkscape:connector-curvature="0"
       inkscape:label="#path3224" />
    <path
       style="fill:#ff0000;stroke:#000000;stroke-width:1px;stroke-linecap:butt;stroke-linejoin:miter;stroke-opacity:1"
       d="M 383.85797,276.56503 385.87827,280.60564 409.11178,281.61579 414.16254,278.58533 413.65747,267.97873 403.55594,267.97873 399.51533,271.00919 397.49503,274.03965 z"
       id="e91"
       inkscape:connector-curvature="0"
       inkscape:label="#path3226" />
    <path
       style="fill:#ff0000;stroke:#000000;stroke-width:1px;stroke-linecap:butt;stroke-linejoin:miter;stroke-opacity:1"
       d="M 397.49503,316.46605 405.57625,318.99143 464.16509,327.57773 463.15494,318.48636 476.792,316.46605 476.792,305.85945 399.51533,292.72747 400.02041,296.263 396.48487,311.41529 z"
       id="e111"
       inkscape:connector-curvature="0"
       inkscape:label="#path3228" />
    <path
       style="fill:#ff0000;stroke:#000000;stroke-width:1px;stroke-linecap:butt;stroke-linejoin:miter;stroke-opacity:1"
       d="M 476.792,316.97113 462.64987,318.48636 464.16509,330.10311 463.66002,340.20464 475.78185,340.70971 z"
       id="e112"
       inkscape:connector-curvature="0"
       inkscape:label="#path3230" />
    <path
       style="fill:none;stroke:#000000;stroke-width:1px;stroke-linecap:butt;stroke-linejoin:miter;stroke-opacity:1"
       d="M 357.08892,317.98128 360.11938,321.51682 357.08892,327.57773 356.07877,354.34677 362.13969,357.37723 367.19045,361.41784 370.72598,359.39754 394.46457,356.36708 402.54579,357.88231 416.18285,357.88231 439.92143,354.85185 476.28693,351.31632 475.27677,341.21479 464.16509,338.68941 463.66002,328.08281 398.50518,316.97113 397.49503,316.46605 390.42396,318.48636 361.63461,315.96098 z"
       id="path3232"
       inkscape:connector-curvature="0" />
    <path
       style="fill:#ff0000;stroke:#000000;stroke-width:1px;stroke-linecap:butt;stroke-linejoin:miter;stroke-opacity:1"
       d="M 306.07622,318.99143 307.59145,327.07265 330.31988,326.56758 331.83511,314.44575 329.30973,312.42544 324.25897,319.49651 312.64221,314.95082 309.61176,318.99143 z"
       id="e113"
       inkscape:connector-curvature="0"
       inkscape:label="#path3234" />
    <path
       style="fill:#ff0000;stroke:#000000;stroke-width:1px;stroke-linecap:butt;stroke-linejoin:miter;stroke-opacity:1"
       d="M 330.31988,324.0422 334.36049,330.10311 340.42141,328.08281 343.45187,318.48636 340.92648,312.42544 332.34019,314.44575 z"
       id="e115"
       inkscape:connector-curvature="0"
       inkscape:label="#path3236" />
    <path
       style="fill:#ff0000;stroke:#000000;stroke-width:1px;stroke-linecap:butt;stroke-linejoin:miter;stroke-opacity:1"
       d="M 326.78435,327.07265 328.29958,334.6488 328.29958,345.2554 298.50008,345.76048 300.01531,339.19449 300.52038,332.62849 295.9747,328.08281 309.61176,326.0625 z"
       id="e117"
       inkscape:connector-curvature="0"
       inkscape:label="#path3238" />
    <path
       style="fill:#ff0000;stroke:#000000;stroke-width:1px;stroke-linecap:butt;stroke-linejoin:miter;stroke-opacity:1"
       d="M 271.22596,330.60819 273.24626,332.62849 273.75134,347.78078 278.29703,349.80109 297.995,349.80109 298.50008,344.24525 300.01531,332.62849 294.45947,328.58788 z"
       id="e118"
       inkscape:connector-curvature="0"
       inkscape:label="#path3240" />
    <path
       style="fill:#ff0000;stroke:#000000;stroke-width:1px;stroke-linecap:butt;stroke-linejoin:miter;stroke-opacity:1"
       d="M 233.34524,351.82139 251.52798,337.67926 270.72088,330.60819 273.75134,332.62849 273.24626,347.78078 274.25642,349.29601 244.96199,350.30616 z"
       id="e119"
       inkscape:connector-curvature="0"
       inkscape:label="#path3242" />
    <path
       style="fill:#ff0000;stroke:#000000;stroke-width:1px;stroke-linecap:butt;stroke-linejoin:miter;stroke-opacity:1"
       d="M 233.34524,351.31632 202.03051,382.63104 237.38585,381.11582 260.11428,378.59043 272.74119,379.09551 272.23611,355.35693 274.25642,348.79093 z"
       id="e120"
       inkscape:connector-curvature="0"
       inkscape:label="#path3244" />
    <path
       style="fill:#ff0000;stroke:#000000;stroke-width:1px;stroke-linecap:butt;stroke-linejoin:miter;stroke-opacity:1"
       d="M 201.52543,381.11582 173.24116,409.90516 193.94929,418.49146 208.09142,403.33917 256.07367,380.10566 z"
       id="e123"
       inkscape:connector-curvature="0"
       inkscape:label="#path3246" />
    <path
       style="fill:#ff0000;stroke:#000000;stroke-width:1px;stroke-linecap:butt;stroke-linejoin:miter;stroke-opacity:1"
       d="M 194.45437,418.49146 203.04066,421.01684 225.76909,411.92547 256.07367,403.33917 274.76149,401.31887 272.23611,379.09551 254.05337,380.10566 216.67772,398.79349 206.5762,404.34932 z"
       id="e124"
       inkscape:connector-curvature="0"
       inkscape:label="#path3248" />
    <path
       style="fill:#ff0000;stroke:#000000;stroke-width:1px;stroke-linecap:butt;stroke-linejoin:miter;stroke-opacity:1"
       d="M 173.24116,410.41024 183.34269,374.04475 190.41375,369.49906 189.90868,392.22749 z"
       id="e122"
       inkscape:connector-curvature="0"
       inkscape:label="#path3250" />
    <path
       style="fill:#ff0000;stroke:#000000;stroke-width:1px;stroke-linecap:butt;stroke-linejoin:miter;stroke-opacity:1"
       d="M 190.91883,369.49906 189.90868,393.23765 233.34524,351.82139 249.0026,339.69956 z"
       id="e121"
       inkscape:connector-curvature="0"
       inkscape:label="#path3252" />
    <path
       style="fill:#ff0000;stroke:#000000;stroke-width:1px;stroke-linecap:butt;stroke-linejoin:miter;stroke-opacity:1"
       d="M 327.7945,327.57773 327.7945,334.6488 327.7945,346.26555 337.39095,345.2554 337.89603,329.09296 332.84526,329.09296 331.33004,324.54727 z"
       id="e116"
       inkscape:connector-curvature="0"
       inkscape:label="#path3254" />
    <path
       style="fill:#ff0000;stroke:#000000;stroke-width:1px;stroke-linecap:butt;stroke-linejoin:miter;stroke-opacity:1"
       d="M 338.4011,329.59804 336.3808,363.94322 346.9874,360.91276 356.58385,359.90261 364.66507,359.90261 356.58385,354.34677 356.58385,328.08281 360.62446,320.50666 358.09908,318.99143 343.45187,317.98128 z"
       id="e125"
       inkscape:connector-curvature="0"
       inkscape:label="#path3256" />
    <path
       style="fill:#ff0000;stroke:#000000;stroke-width:1px;stroke-linecap:butt;stroke-linejoin:miter;stroke-opacity:1"
       d="M 330.82496,367.98383 334.86557,386.16658 347.99755,381.62089 350.52293,368.99399 347.49248,362.42799 336.3808,362.93307 z"
       id="e126"
       inkscape:connector-curvature="0"
       inkscape:label="#path3258" />
    <path
       style="fill:#ff0000;stroke:#000000;stroke-width:1px;stroke-linecap:butt;stroke-linejoin:miter;stroke-opacity:1"
       d="M 348.50263,380.10566 370.22091,374.54982 368.70568,372.02444 368.70568,362.42799 364.66507,358.89246 346.48232,361.41784 351.02801,369.49906 z"
       id="e127"
       inkscape:connector-curvature="0"
       inkscape:label="#path3260" />
    <path
       style="fill:#ff0000;stroke:#000000;stroke-width:1px;stroke-linecap:butt;stroke-linejoin:miter;stroke-opacity:1"
       d="M 370.72598,374.04475 407.09148,368.99399 401.53564,358.38738 392.94934,356.36708 368.2006,360.91276 368.2006,361.92292 z"
       id="e129"
       inkscape:connector-curvature="0"
       inkscape:label="#path3262" />
    <path
       style="fill:#ff0000;stroke:#000000;stroke-width:1px;stroke-linecap:butt;stroke-linejoin:miter;stroke-opacity:1"
       d="M 402.54579,358.38738 406.08132,368.48891 421.23361,367.47876 417.69808,358.89246 z"
       id="e130"
       inkscape:connector-curvature="0"
       inkscape:label="#path3264" />
    <path
       style="fill:#ff0000;stroke:#000000;stroke-width:1px;stroke-linecap:butt;stroke-linejoin:miter;stroke-opacity:1"
       d="M 437.90113,355.862 439.92143,361.41784 440.42651,376.06505 444.9722,396.2681 451.03311,413.4407 451.53819,418.99654 458.60926,424.0473 459.61941,419.50161 465.68032,417.98638 466.69048,412.43054 473.25647,407.37978 482.34784,402.8341 471.74124,380.61074 474.7717,376.57013 486.89353,371.51937 475.27677,352.32647 z"
       id="e131"
       inkscape:connector-curvature="0"
       inkscape:label="#path3266" />
    <path
       style="fill:#ff0000;stroke:#000000;stroke-width:1px;stroke-linecap:butt;stroke-linejoin:miter;stroke-opacity:1"
       d="M 471.74124,380.61074 484.36815,408.38993 489.92398,406.87471 502.55089,397.78333 499.52043,390.71227 488.40876,371.01429 485.3783,371.01429 474.7717,376.06505 z"
       id="e132"
       inkscape:connector-curvature="0"
       inkscape:label="#path3268" />
    <path
       style="fill:#ff0000;stroke:#000000;stroke-width:1px;stroke-linecap:butt;stroke-linejoin:miter;stroke-opacity:1"
       d="M 475.27677,350.81124 485.88337,368.48891 487.90368,371.51937 489.92398,372.02444 501.03566,391.21734 511.64226,384.14627 499.01536,362.93307 492.95444,347.78078 z"
       id="e133"
       inkscape:connector-curvature="0"
       inkscape:label="#path3270" />
    <path
       style="fill:#ff0000;stroke:#000000;stroke-width:1px;stroke-linecap:butt;stroke-linejoin:miter;stroke-opacity:1"
       d="M 511.64226,383.6412 520.22856,379.09551 504.5712,353.33662 501.54074,348.28586 493.45952,348.79093 498.51028,361.92292 z"
       id="e83"
       inkscape:connector-curvature="0"
       inkscape:label="#path3272">
      <title
         id="title3120">kuckucksei</title>
    </path>
    <path
       style="fill:#ff0000;stroke:#000000;stroke-width:1px;stroke-linecap:butt;stroke-linejoin:miter;stroke-opacity:1"
       d="M 202.03051,292.72747 202.53559,302.82899 212.63711,302.32392 225.76909,299.29346 233.34524,290.70716 234.86047,287.17163 z"
       id="e104"
       inkscape:connector-curvature="0"
       inkscape:label="#path4061" />
    <path
       style="fill:#ff0000;stroke:#000000;stroke-width:1px;stroke-linecap:butt;stroke-linejoin:miter;stroke-opacity:1"
       d="M 315.5464,313.94067 314.66252,315.20336 324.00643,319.24397 328.42585,312.67798 z"
       id="e114"
       inkscape:connector-curvature="0"
       inkscape:label="#path4063" />
    <path
       style="fill:#ff0000;stroke:#000000;stroke-width:1px;stroke-linecap:butt;stroke-linejoin:miter;stroke-opacity:1"
       d="M 357.85714,318.07647 361.07143,320.93361 357.85714,327.71932 357.5,354.50504 366.78571,360.21932 393.57143,356.29075 404.64286,358.43361 442.14286,354.86218 476.78572,350.21932 475.71429,340.57647 463.21429,340.21932 463.57143,328.43361 402.14286,318.07647 397.14286,316.6479 392.14286,318.07647 362.14286,316.29075 z"
       id="e128"
       inkscape:connector-curvature="0"
       inkscape:label="#path4065" />
  </g>
</svg>
